<svg width="252" height="267" viewBox="0 0 252 267" fill="none" xmlns="http://www.w3.org/2000/svg">
<g clip-path="url(#clip0_1285_283)">
<path d="M126 267C189.262 267 240.546 215.769 240.546 152.571C240.546 89.3742 189.262 38.1428 126 38.1428C62.7383 38.1428 11.4546 89.3742 11.4546 152.571C11.4546 215.769 62.7383 267 126 267Z" fill="#FED7AA"/>
<mask id="mask0_1285_283" style="mask-type:luminance" maskUnits="userSpaceOnUse" x="11" y="38" width="230" height="229">
<path d="M126 267C189.262 267 240.546 215.769 240.546 152.571C240.546 89.3742 189.262 38.1428 126 38.1428C62.7383 38.1428 11.4546 89.3742 11.4546 152.571C11.4546 215.769 62.7383 267 126 267Z" fill="white"/>
</mask>
<g mask="url(#mask0_1285_283)">
<path d="M240.546 38.1428H11.4546V267H240.546V38.1428Z" fill="#FED7AA"/>
</g>
<mask id="mask1_1285_283" style="mask-type:luminance" maskUnits="userSpaceOnUse" x="0" y="0" width="252" height="267">
<path d="M11.4545 152.571C11.4545 215.769 62.7383 267 126 267C189.262 267 240.545 215.769 240.545 152.571H252V0H0V152.571H11.4545Z" fill="white"/>
</mask>
<g mask="url(#mask1_1285_283)">
<path d="M148.909 172.225V189.761H152.727C190.684 189.761 221.454 220.5 221.454 258.418V267H30.5454V258.418C30.5454 220.5 61.3157 189.761 99.2727 189.761H103.091V172.225C86.637 164.417 74.8098 148.459 72.8367 129.573C67.2766 128.787 63 124.014 63 118.243V104.893C63 99.223 67.128 94.5162 72.5454 93.6083V87.7286C72.5454 58.2366 96.4778 34.3286 126 34.3286C155.522 34.3286 179.454 58.2366 179.454 87.7286V93.6083C184.872 94.5162 189 99.223 189 104.893V118.243C189 124.014 184.723 128.787 179.163 129.573C177.19 148.459 165.363 164.417 148.909 172.225Z" fill="#D0C6AC"/>
<mask id="mask2_1285_283" style="mask-type:luminance" maskUnits="userSpaceOnUse" x="30" y="34" width="192" height="233">
<path d="M148.909 172.225V189.761H152.727C190.684 189.761 221.454 220.5 221.454 258.418V267H30.5454V258.418C30.5454 220.5 61.3157 189.761 99.2727 189.761H103.091V172.225C86.637 164.417 74.8098 148.459 72.8367 129.573C67.2766 128.787 63 124.014 63 118.243V104.893C63 99.223 67.128 94.5162 72.5454 93.6083V87.7286C72.5454 58.2366 96.4778 34.3286 126 34.3286C155.522 34.3286 179.454 58.2366 179.454 87.7286V93.6083C184.872 94.5162 189 99.223 189 104.893V118.243C189 124.014 184.723 128.787 179.163 129.573C177.19 148.459 165.363 164.417 148.909 172.225Z" fill="white"/>
</mask>
<g mask="url(#mask2_1285_283)">
<path d="M282.545 34.3286H30.5454V301.329H282.545V34.3286Z" fill="#EDB98A"/>
</g>
<mask id="mask3_1285_283" style="mask-type:luminance" maskUnits="userSpaceOnUse" x="30" y="34" width="192" height="233">
<path d="M148.909 172.225V189.761H152.727C190.684 189.761 221.454 220.5 221.454 258.418V267H30.5454V258.418C30.5454 220.5 61.3157 189.761 99.2727 189.761H103.091V172.225C86.637 164.417 74.8098 148.459 72.8367 129.573C67.2766 128.787 63 124.014 63 118.243V104.893C63 99.223 67.128 94.5162 72.5454 93.6083V87.7286C72.5454 58.2366 96.4778 34.3286 126 34.3286C155.522 34.3286 179.454 58.2366 179.454 87.7286V93.6083C184.872 94.5162 189 99.223 189 104.893V118.243C189 124.014 184.723 128.787 179.163 129.573C177.19 148.459 165.363 164.417 148.909 172.225Z" fill="white"/>
</mask>
<g mask="url(#mask3_1285_283)">
<path fill-rule="evenodd" clip-rule="evenodd" d="M179.454 109.661V131.593C179.454 161.085 155.522 184.993 126 184.993C96.4778 184.993 72.5454 161.085 72.5454 131.593V109.661V123.964C72.5454 153.456 96.4778 177.364 126 177.364C155.522 177.364 179.454 153.456 179.454 123.964V109.661Z" fill="black" fill-opacity="0.1"/>
</g>
<path fill-rule="evenodd" clip-rule="evenodd" d="M103.091 174.571C85.9867 176.483 72.8125 181.705 72.5494 195.144C47.867 205.56 30.5454 229.968 30.5454 258.417V267H221.454V258.417C221.454 229.968 204.133 205.56 179.451 195.144C179.187 181.705 166.013 176.483 148.909 174.571V192.621C148.909 205.261 138.652 215.507 126 215.507C113.348 215.507 103.091 205.261 103.091 192.621V174.571Z" fill="#B7C1DB"/>
<mask id="mask4_1285_283" style="mask-type:luminance" maskUnits="userSpaceOnUse" x="30" y="174" width="192" height="93">
<path fill-rule="evenodd" clip-rule="evenodd" d="M103.091 174.571C85.9867 176.483 72.8125 181.705 72.5494 195.144C47.867 205.56 30.5454 229.968 30.5454 258.417V267H221.454V258.417C221.454 229.968 204.133 205.56 179.451 195.144C179.187 181.705 166.013 176.483 148.909 174.571V192.621C148.909 205.261 138.652 215.507 126 215.507C113.348 215.507 103.091 205.261 103.091 192.621V174.571Z" fill="white"/>
</mask>
<g mask="url(#mask4_1285_283)">
<path d="M252 162.107H0V267H252V162.107Z" fill="#262E33"/>
</g>
<mask id="mask5_1285_283" style="mask-type:luminance" maskUnits="userSpaceOnUse" x="30" y="174" width="192" height="93">
<path fill-rule="evenodd" clip-rule="evenodd" d="M103.091 174.571C85.9867 176.483 72.8125 181.705 72.5494 195.144C47.867 205.56 30.5454 229.968 30.5454 258.417V267H221.454V258.417C221.454 229.968 204.133 205.56 179.451 195.144C179.187 181.705 166.013 176.483 148.909 174.571V192.621C148.909 205.261 138.652 215.507 126 215.507C113.348 215.507 103.091 205.261 103.091 192.621V174.571Z" fill="white"/>
</mask>
<g mask="url(#mask5_1285_283)">
<path fill-rule="evenodd" clip-rule="evenodd" d="M97.3635 220.98V267H90.6816V217.558C92.7852 218.807 95.0217 219.952 97.3635 220.98ZM161.318 217.558V256.034C161.318 257.877 159.822 259.371 157.977 259.371C156.132 259.371 154.636 257.877 154.636 256.034V220.98C156.978 219.952 159.214 218.807 161.318 217.558Z" fill="#F4F4F4"/>
</g>
<mask id="mask6_1285_283" style="mask-type:luminance" maskUnits="userSpaceOnUse" x="30" y="174" width="192" height="93">
<path fill-rule="evenodd" clip-rule="evenodd" d="M103.091 174.571C85.9867 176.483 72.8125 181.705 72.5494 195.144C47.867 205.56 30.5454 229.968 30.5454 258.417V267H221.454V258.417C221.454 229.968 204.133 205.56 179.451 195.144C179.187 181.705 166.013 176.483 148.909 174.571V192.621C148.909 205.261 138.652 215.507 126 215.507C113.348 215.507 103.091 205.261 103.091 192.621V174.571Z" fill="white"/>
</mask>
<g mask="url(#mask6_1285_283)">
<path fill-rule="evenodd" clip-rule="evenodd" d="M86.8253 174.241C72.4586 176.955 62.5225 182.364 62.5225 192.915C62.5225 211.712 94.0584 226.95 126 226.95C157.941 226.95 189.477 211.712 189.477 192.915C189.477 182.364 179.541 176.955 165.174 174.241C173.846 177.435 179.454 182.805 179.454 191.741C179.454 211.186 152.898 226.95 126 226.95C99.1018 226.95 72.5452 211.186 72.5452 191.741C72.5452 182.805 78.1532 177.435 86.8253 174.241Z" fill="black" fill-opacity="0.16"/>
</g>
<path d="M112.637 143.036C112.637 148.158 118.515 151.618 126 151.618C133.486 151.618 139.364 148.158 139.364 143.036C139.364 141.982 138.457 141.129 137.455 141.129C136.221 141.129 135.67 141.992 135.546 143.036C134.36 145.837 131.425 147.533 126 147.804C120.575 147.533 117.641 145.837 116.455 143.036C116.331 141.992 115.78 141.129 114.546 141.129C113.543 141.129 112.637 141.982 112.637 143.036Z" fill="black" fill-opacity="0.6"/>
<path fill-rule="evenodd" clip-rule="evenodd" d="M114.545 123.964C114.545 128.177 119.674 131.593 126 131.593C132.326 131.593 137.455 128.177 137.455 123.964" fill="black" fill-opacity="0.16"/>
<path d="M150.992 115.122C157.318 115.122 162.446 111.396 162.446 106.8C162.446 102.204 157.318 98.4779 150.992 98.4779C144.665 98.4779 139.537 102.204 139.537 106.8C139.537 111.396 144.665 115.122 150.992 115.122Z" fill="white"/>
<path d="M101.008 115.122C107.334 115.122 112.463 111.396 112.463 106.8C112.463 102.204 107.334 98.4779 101.008 98.4779C94.6821 98.4779 89.5537 102.204 89.5537 106.8C89.5537 111.396 94.6821 115.122 101.008 115.122Z" fill="white"/>
<path d="M150.818 112.695C153.981 112.695 156.545 110.133 156.545 106.973C156.545 103.814 153.981 101.252 150.818 101.252C147.655 101.252 145.091 103.814 145.091 106.973C145.091 110.133 147.655 112.695 150.818 112.695Z" fill="black" fill-opacity="0.7"/>
<path d="M101.529 112.695C104.692 112.695 107.256 110.133 107.256 106.973C107.256 103.814 104.692 101.252 101.529 101.252C98.3659 101.252 95.8018 103.814 95.8018 106.973C95.8018 110.133 98.3659 112.695 101.529 112.695Z" fill="black" fill-opacity="0.7"/>
<path d="M87.4654 94.5548C91.2023 89.3018 101.447 86.3562 110.272 88.5212C111.296 88.7724 112.33 88.1468 112.581 87.1239C112.833 86.101 112.207 85.0681 111.183 84.8169C100.934 82.3027 89.0708 85.7137 84.3531 92.3452C83.7423 93.2038 83.9439 94.3944 84.8033 95.0046C85.6628 95.6147 86.8546 95.4133 87.4654 94.5548Z" fill="black" fill-opacity="0.6"/>
<path d="M164.535 94.5548C160.798 89.3018 150.553 86.3562 141.728 88.5212C140.704 88.7724 139.671 88.1468 139.419 87.1239C139.168 86.101 139.794 85.0681 140.818 84.8169C151.066 82.3027 162.93 85.7137 167.647 92.3452C168.258 93.2038 168.057 94.3944 167.197 95.0046C166.338 95.6147 165.146 95.4133 164.535 94.5548Z" fill="black" fill-opacity="0.6"/>
<mask id="mask7_1285_283" style="mask-type:luminance" maskUnits="userSpaceOnUse" x="0" y="0" width="252" height="267">
<path d="M252 0H0V267H252V0Z" fill="white"/>
</mask>
<g mask="url(#mask7_1285_283)">
<path fill-rule="evenodd" clip-rule="evenodd" d="M142.636 162.268C140.237 164.456 137.681 165.439 134.45 164.751C133.895 164.633 131.628 160.424 126 160.424C120.371 160.424 118.105 164.633 117.549 164.751C114.319 165.439 111.763 164.456 109.363 162.268C104.853 158.155 101.102 152.484 103.356 146.296C104.531 143.071 106.441 139.53 109.916 138.502C113.627 137.405 118.838 138.501 122.578 137.751C123.789 137.508 125.113 137.077 126 136.361C126.887 137.077 128.211 137.508 129.422 137.751C133.162 138.501 138.372 137.405 142.083 138.502C145.558 139.53 147.469 143.071 148.644 146.296C150.898 152.484 147.147 158.155 142.636 162.268ZM179.532 93.4501C176.276 101.46 177.534 111.433 176.931 119.841C176.442 126.676 175.004 136.919 168.929 141.333C165.822 143.59 160.167 147.384 156.108 146.326C153.314 145.597 153.016 137.591 149.344 134.594C145.178 131.195 139.977 129.701 134.733 129.932C132.47 130.031 127.894 130.008 126 131.746C124.106 130.008 119.53 130.031 117.267 129.932C112.022 129.701 106.821 131.195 102.656 134.594C98.9841 137.591 98.6862 145.597 95.892 146.326C91.8328 147.384 86.178 143.59 83.0711 141.333C76.9958 136.919 75.5581 126.676 75.0681 119.841C74.466 111.433 75.7232 101.46 72.4679 93.4501C70.8842 93.4501 71.9288 108.83 71.9288 108.83V128.241C71.959 142.82 81.0743 164.639 101.285 172.971C106.228 175.009 117.424 178.318 126 178.318C134.576 178.318 145.772 175.324 150.715 173.286C170.925 164.954 180.041 142.82 180.071 128.241V108.83C180.071 108.83 181.115 93.4501 179.532 93.4501Z" fill="#331B0C"/>
<mask id="mask8_1285_283" style="mask-type:luminance" maskUnits="userSpaceOnUse" x="71" y="93" width="110" height="86">
<path fill-rule="evenodd" clip-rule="evenodd" d="M142.636 162.268C140.237 164.456 137.681 165.439 134.45 164.751C133.895 164.633 131.628 160.424 126 160.424C120.371 160.424 118.105 164.633 117.549 164.751C114.319 165.439 111.763 164.456 109.363 162.268C104.853 158.155 101.102 152.484 103.356 146.296C104.531 143.071 106.441 139.53 109.916 138.502C113.627 137.405 118.838 138.501 122.578 137.751C123.789 137.508 125.113 137.077 126 136.361C126.887 137.077 128.211 137.508 129.422 137.751C133.162 138.501 138.372 137.405 142.083 138.502C145.558 139.53 147.469 143.071 148.644 146.296C150.898 152.484 147.147 158.155 142.636 162.268ZM179.532 93.4501C176.276 101.46 177.534 111.433 176.931 119.841C176.442 126.676 175.004 136.919 168.929 141.333C165.822 143.59 160.167 147.384 156.108 146.326C153.314 145.597 153.016 137.591 149.344 134.594C145.178 131.195 139.977 129.701 134.733 129.932C132.47 130.031 127.894 130.008 126 131.746C124.106 130.008 119.53 130.031 117.267 129.932C112.022 129.701 106.821 131.195 102.656 134.594C98.9841 137.591 98.6862 145.597 95.892 146.326C91.8328 147.384 86.178 143.59 83.0711 141.333C76.9958 136.919 75.5581 126.676 75.0681 119.841C74.466 111.433 75.7232 101.46 72.4679 93.4501C70.8842 93.4501 71.9288 108.83 71.9288 108.83V128.241C71.959 142.82 81.0743 164.639 101.285 172.971C106.228 175.009 117.424 178.318 126 178.318C134.576 178.318 145.772 175.324 150.715 173.286C170.925 164.954 180.041 142.82 180.071 128.241V108.83C180.071 108.83 181.115 93.4501 179.532 93.4501Z" fill="white"/>
</mask>
<g mask="url(#mask8_1285_283)">
<path d="M267.272 68.6572H15.2725V301.329H267.272V68.6572Z" fill="#2C1B18"/>
</g>
<path fill-rule="evenodd" clip-rule="evenodd" d="M174.376 37.1405C179.537 32.4201 180.779 22.8491 177.849 16.6392C174.252 9.01498 166.951 8.05981 159.956 11.413C153.362 14.574 147.492 15.6271 140.271 14.0955C133.342 12.626 126.769 10.0341 119.608 9.60847C107.843 8.9092 96.4125 13.2686 88.3941 22.0554C86.8642 23.7317 85.6314 25.6484 84.4663 27.5911C83.5339 29.1454 82.483 30.8132 82.0864 32.6047C81.8977 33.4567 82.2488 35.5586 81.8242 36.2566C81.3648 37.0104 79.6326 37.7017 78.8943 38.261C77.3988 39.3945 76.103 40.6736 74.9047 42.1203C72.3598 45.1923 70.9589 48.4011 69.7808 52.2012C65.8643 64.8313 65.5324 79.8533 70.5954 92.255C71.2703 93.9088 73.3618 97.3583 74.5914 93.817C74.8343 93.1171 74.2721 90.7713 74.2733 90.065C74.2778 87.4712 75.711 70.2986 81.9547 60.6787C83.987 57.5473 93.3833 45.8213 95.3025 45.7272C96.3193 47.3415 106.643 57.6553 133.43 56.4466C145.516 55.9012 154.811 50.4765 157.043 48.125C158.025 53.4009 169.445 61.2994 171.185 64.5494C176.212 73.9378 177.327 93.446 179.246 93.4094C181.165 93.3728 182.542 88.415 182.937 87.4684C185.869 80.4354 186.368 71.6083 186.055 64.05C185.647 54.3215 181.628 43.809 174.376 37.1405Z" fill="#28354B"/>
<mask id="mask9_1285_283" style="mask-type:luminance" maskUnits="userSpaceOnUse" x="66" y="9" width="121" height="87">
<path fill-rule="evenodd" clip-rule="evenodd" d="M174.376 37.1405C179.537 32.4201 180.779 22.8491 177.849 16.6392C174.252 9.01498 166.951 8.05981 159.956 11.413C153.362 14.574 147.492 15.6271 140.271 14.0955C133.342 12.626 126.769 10.0341 119.608 9.60847C107.843 8.9092 96.4125 13.2686 88.3941 22.0554C86.8642 23.7317 85.6314 25.6484 84.4663 27.5911C83.5339 29.1454 82.483 30.8132 82.0864 32.6047C81.8977 33.4567 82.2488 35.5586 81.8242 36.2566C81.3648 37.0104 79.6326 37.7017 78.8943 38.261C77.3988 39.3945 76.103 40.6736 74.9047 42.1203C72.3598 45.1923 70.9589 48.4011 69.7808 52.2012C65.8643 64.8313 65.5324 79.8533 70.5954 92.255C71.2703 93.9088 73.3618 97.3583 74.5914 93.817C74.8343 93.1171 74.2721 90.7713 74.2733 90.065C74.2778 87.4712 75.711 70.2986 81.9547 60.6787C83.987 57.5473 93.3833 45.8213 95.3025 45.7272C96.3193 47.3415 106.643 57.6553 133.43 56.4466C145.516 55.9012 154.811 50.4765 157.043 48.125C158.025 53.4009 169.445 61.2994 171.185 64.5494C176.212 73.9378 177.327 93.446 179.246 93.4094C181.165 93.3728 182.542 88.415 182.937 87.4684C185.869 80.4354 186.368 71.6083 186.055 64.05C185.647 54.3215 181.628 43.809 174.376 37.1405Z" fill="white"/>
</mask>
<g mask="url(#mask9_1285_283)">
<path d="M251.045 0H-0.95459V267H251.045V0Z" fill="#2C1B18"/>
</g>
<g filter="url(#filter0_d_1285_283)">
<path d="M96.409 126.825H93.7766C80.4822 126.825 72.5454 119.517 72.5454 107.277C72.5454 97.3855 74.2798 87.7286 95.0058 87.7286H97.8123C118.538 87.7286 120.273 97.3855 120.273 107.277C120.273 118.785 110.461 126.825 96.409 126.825ZM94.8678 93.4501C76.3636 93.4501 76.3636 99.9735 76.3636 108.232C76.3636 114.974 79.3382 123.011 93.5177 123.011H96.409C108.212 123.011 116.455 116.934 116.455 108.232C116.455 99.9735 116.455 93.4501 97.9503 93.4501H94.8678Z" fill="#252C2F"/>
<path d="M155.591 126.825H152.959C139.664 126.825 131.728 119.517 131.728 107.277C131.728 97.3855 133.462 87.7286 154.188 87.7286H156.994C177.72 87.7286 179.455 97.3855 179.455 107.277C179.455 118.785 169.643 126.825 155.591 126.825ZM154.05 93.4501C135.546 93.4501 135.546 99.9735 135.546 108.232C135.546 114.974 138.523 123.011 152.7 123.011H155.591C167.394 123.011 175.637 116.934 175.637 108.232C175.637 99.9735 175.637 93.4501 157.132 93.4501H154.05Z" fill="#252C2F"/>
<path d="M66.7748 93.2322C67.4348 92.5883 74.6546 87.7286 94.9773 87.7286C112.017 87.7286 115.624 89.4953 121.084 92.1645L121.484 92.3616C121.864 92.4956 123.805 93.1543 126.076 93.2267C128.144 93.138 129.914 92.5779 130.431 92.3985C136.663 89.3708 142.763 87.7286 157.023 87.7286C177.345 87.7286 184.565 92.5883 185.225 93.2322C186.785 93.2322 188.046 94.4623 188.046 95.984V98.7358C188.046 100.258 186.785 101.488 185.225 101.488C185.225 101.488 178.638 101.488 178.638 104.239C178.638 106.991 176.765 100.258 176.765 98.7358V96.0556C173.325 94.7406 167.168 92.2926 157.023 92.2926C145.719 92.2926 140.09 94.295 135.261 96.2832L135.315 96.4133L135.313 98.3073L133.197 103.409L130.582 102.376C130.349 102.284 129.845 102.118 129.147 101.946C127.199 101.466 125.197 101.32 123.427 101.683C122.777 101.817 122.174 102.017 121.621 102.287L119.099 103.518L116.576 98.5957L116.688 96.4078L116.765 96.2219C112.6 94.2834 108.76 92.2926 94.9773 92.2926C84.8325 92.2926 78.6757 94.7397 75.2356 96.0547V98.7358C75.2356 100.258 72.4153 106.991 72.4153 104.239C72.4153 101.488 66.7748 101.488 66.7748 101.488C65.2181 101.488 63.9546 100.258 63.9546 98.7358V95.984C63.9546 94.4623 65.2181 93.2322 66.7748 93.2322Z" fill="#252C2F"/>
</g>
</g>
</g>
</g>
<defs>
<filter id="filter0_d_1285_283" x="63.9546" y="87.7286" width="124.091" height="41.0964" filterUnits="userSpaceOnUse" color-interpolation-filters="sRGB">
<feFlood flood-opacity="0" result="BackgroundImageFix"/>
<feColorMatrix in="SourceAlpha" type="matrix" values="0 0 0 0 0 0 0 0 0 0 0 0 0 0 0 0 0 0 127 0" result="hardAlpha"/>
<feOffset dy="2"/>
<feColorMatrix type="matrix" values="0 0 0 0 0 0 0 0 0 0 0 0 0 0 0 0 0 0 0.2 0"/>
<feBlend mode="normal" in2="BackgroundImageFix" result="effect1_dropShadow_1285_283"/>
<feBlend mode="normal" in="SourceGraphic" in2="effect1_dropShadow_1285_283" result="shape"/>
</filter>
<clipPath id="clip0_1285_283">
<rect width="252" height="267" fill="white"/>
</clipPath>
</defs>
</svg>
